<?xml version="1.0" encoding="iso-8859-1"?>
<!-- Generator: Adobe Illustrator 19.0.0, SVG Export Plug-In . SVG Version: 6.00 Build 0)  -->
<svg version="1.1" id="Layer_1" xmlns="http://www.w3.org/2000/svg" xmlns:xlink="http://www.w3.org/1999/xlink" x="0px" y="0px"
	 viewBox="0 0 512 512" style="enable-background:new 0 0 512 512;" xml:space="preserve">
<circle style="fill:#F33052;" cx="256" cy="256" r="256"/>
<g>
	<path style="fill:#FFFFFF;" d="M99.824,231.504v10.128l-28.736,13.856l28.736,13.872v10.064l-39.536-19.648v-8.608L99.824,231.504z
		"/>
	<path style="fill:#FFFFFF;" d="M157.184,243.312h-11.28c-0.048-0.56-0.08-0.976-0.08-1.248c-0.272-3.408-1.024-5.568-2.272-6.448
		s-4.208-1.312-8.832-1.312c-5.472,0-9.024,0.496-10.704,1.52s-2.512,3.136-2.512,6.368c0,3.84,0.688,6.16,2.032,6.928
		c1.376,0.768,5.888,1.344,13.552,1.76c9.072,0.512,14.928,1.808,17.584,3.888s4,6.4,4,12.976c0,8.096-1.584,13.312-4.704,15.664
		c-3.12,2.368-9.984,3.552-20.624,3.552c-9.568,0-15.936-1.168-19.072-3.472c-3.12-2.336-4.704-7.024-4.704-14.096l-0.048-2.224
		h11.232l0.064,1.296c0,4.24,0.72,6.864,2.224,7.792c1.472,0.96,5.536,1.44,12.16,1.44c5.184,0,8.464-0.56,9.904-1.648
		c1.408-1.104,2.144-3.664,2.144-7.632c0-2.96-0.544-4.88-1.648-5.856c-1.088-0.96-3.408-1.552-7.008-1.76l-6.384-0.4
		c-9.632-0.56-15.776-1.888-18.448-4.016c-2.688-2.096-4.016-6.64-4.016-13.6c0-7.088,1.6-11.824,4.848-14.176
		c3.216-2.368,9.648-3.552,19.312-3.552c9.152,0,15.312,1.088,18.48,3.264c3.184,2.16,4.784,6.4,4.784,12.704v2.288H157.184z"/>
	<path style="fill:#FFFFFF;" d="M204.24,264.72h11.6v2.096c0,8.464-1.552,13.936-4.64,16.432c-3.104,2.48-9.936,3.728-20.496,3.728
		c-12.016,0-19.408-1.968-22.16-5.888c-2.768-3.936-4.144-14.416-4.144-31.488c0-10.048,1.872-16.64,5.616-19.824
		c3.744-3.168,11.584-4.736,23.504-4.736c8.672,0,14.48,1.312,17.376,3.904s4.368,7.76,4.368,15.488l0.048,1.376h-11.584v-1.552
		c0-3.968-0.752-6.528-2.272-7.648c-1.504-1.104-4.912-1.664-10.272-1.664c-7.152,0-11.456,0.88-12.896,2.64
		c-1.456,1.744-2.16,6.944-2.16,15.6c0,11.648,0.64,18.544,1.936,20.672c1.296,2.144,5.472,3.216,12.544,3.216
		c5.744,0,9.456-0.608,11.168-1.792c1.728-1.184,2.576-3.808,2.576-7.84L204.24,264.72z"/>
	<path style="fill:#FFFFFF;" d="M223.104,286.416v-60.848h30c7.472,0,12.608,1.296,15.424,3.872c2.8,2.592,4.224,7.28,4.224,14.064
		c0,6.128-0.704,10.352-2.128,12.608c-1.392,2.272-4.288,3.824-8.656,4.672v0.416c6.736,0.416,10.112,4.352,10.112,11.808v13.408
		h-11.536v-11.104c0-6.256-3.104-9.392-9.28-9.392h-16.64v20.496L223.104,286.416L223.104,286.416z M234.64,256.208h16.592
		c3.952,0,6.576-0.704,7.856-2.128s1.952-4.24,1.952-8.512c0-4.32-0.56-7.136-1.68-8.4c-1.104-1.248-3.552-1.888-7.344-1.888H234.64
		L234.64,256.208L234.64,256.208z"/>
	<path style="fill:#FFFFFF;" d="M293.472,225.584v60.848h-11.536v-60.848L293.472,225.584L293.472,225.584z"/>
	<path style="fill:#FFFFFF;" d="M304.256,286.416v-60.848h24.512h3.04c8.24,0,13.792,1.44,16.656,4.304s4.304,8.4,4.304,16.592
		c0,8.144-1.376,13.552-4.112,16.24c-2.72,2.656-8.256,4-16.576,4l-2.688,0.064h-13.6v19.648H304.256z M315.808,257.04h13.168
		c5.216,0,8.544-0.608,9.968-1.808c1.408-1.184,2.128-4.032,2.128-8.528c0-5.136-0.576-8.336-1.76-9.568
		c-1.168-1.232-4.224-1.856-9.152-1.856h-14.32v21.76H315.808z"/>
	<path style="fill:#FFFFFF;" d="M384.368,235.92v50.512h-11.536V235.92H355.28v-10.336h47.28v10.336L384.368,235.92L384.368,235.92z
		"/>
	<path style="fill:#FFFFFF;" d="M412.176,279.472v-10.128l28.752-13.872l-28.752-13.904v-10.016l39.536,19.648v8.608
		L412.176,279.472z"/>
</g>
<g>
</g>
<g>
</g>
<g>
</g>
<g>
</g>
<g>
</g>
<g>
</g>
<g>
</g>
<g>
</g>
<g>
</g>
<g>
</g>
<g>
</g>
<g>
</g>
<g>
</g>
<g>
</g>
<g>
</g>
</svg>
