<?xml version="1.0" encoding="iso-8859-1"?>
<!-- Generator: Adobe Illustrator 19.0.0, SVG Export Plug-In . SVG Version: 6.00 Build 0)  -->
<svg version="1.1" id="Layer_1" xmlns="http://www.w3.org/2000/svg" xmlns:xlink="http://www.w3.org/1999/xlink" x="0px" y="0px"
	 viewBox="0 0 512 512" style="enable-background:new 0 0 512 512;" xml:space="preserve">
<circle style="fill:#F33052;" cx="256" cy="256" r="256"/>
<g>
	<circle style="fill:#FFFFFF;" cx="256" cy="115.504" r="41.248"/>
	<path style="fill:#FFFFFF;" d="M254.048,252.656l-39.856-86.416c0,0-41.808,0.56-41.808,39.024s0,47.392,0,47.392
		S254.32,252.656,254.048,252.656z"/>
	<path style="fill:#FFFFFF;" d="M257.952,252.656l39.856-86.416c0,0,41.808,0.56,41.808,39.024s0,47.392,0,47.392
		S257.68,252.656,257.952,252.656z"/>
</g>
<polygon points="256,167.776 228.672,167.776 256,228.272 283.328,167.776 "/>
<g>
	<path style="fill:#FFFFFF;" d="M162.608,345.152v61.968h-14.16v-61.968H126.88v-12.688h58.032v12.688H162.608z"/>
	<path style="fill:#FFFFFF;" d="M204.752,344.4v19.248h35.008v10.432h-35.008v21.12H242v11.92h-51.408v-74.656h51.056V344.4
		L204.752,344.4L204.752,344.4z"/>
	<path style="fill:#FFFFFF;" d="M298.672,380.496h14.224v2.56c0,10.384-1.888,17.104-5.68,20.16
		c-3.776,3.04-12.176,4.56-25.152,4.56c-14.72,0-23.776-2.4-27.168-7.216s-5.072-17.68-5.072-38.608
		c0-12.336,2.288-20.416,6.88-24.32c4.592-3.872,14.208-5.824,28.832-5.824c10.64,0,17.744,1.616,21.328,4.8s5.36,9.52,5.36,19.008
		l0.048,1.696h-14.224v-1.92c0-4.896-0.912-8.016-2.752-9.376c-1.84-1.376-6.048-2.048-12.608-2.048
		c-8.784,0-14.064,1.056-15.824,3.216s-2.656,8.528-2.656,19.136c0,14.304,0.8,22.752,2.368,25.376
		c1.6,2.624,6.72,3.936,15.408,3.936c7.024,0,11.6-0.736,13.68-2.192s3.152-4.672,3.152-9.632L298.672,380.496z"/>
	<path style="fill:#FFFFFF;" d="M385.12,332.464v74.656h-14.176v-32.272h-35.008v32.272h-14.16v-74.656h14.16v30.464h35.008v-30.464
		H385.12z"/>
</g>
<g>
</g>
<g>
</g>
<g>
</g>
<g>
</g>
<g>
</g>
<g>
</g>
<g>
</g>
<g>
</g>
<g>
</g>
<g>
</g>
<g>
</g>
<g>
</g>
<g>
</g>
<g>
</g>
<g>
</g>
</svg>
